<svg xmlns="http://www.w3.org/2000/svg" xmlns:xlink="http://www.w3.org/1999/xlink" width="500" zoomAndPan="magnify" viewBox="0 0 375 374.999991" height="500" preserveAspectRatio="xMidYMid meet" version="1.0"><defs><g/><clipPath id="8373e09e85"><path d="M 100.691406 141 L 251 141 L 251 185 L 100.691406 185 Z M 100.691406 141 " clip-rule="nonzero"/></clipPath><clipPath id="81bab410b8"><path d="M 127 168 L 273.941406 168 L 273.941406 188 L 127 188 Z M 127 168 " clip-rule="nonzero"/></clipPath></defs><path fill="#ff9900" d="M 190.226562 137.375 C 164.25 137.253906 141.910156 141.375 138.6875 141.785156 C 133.53125 142.4375 131.839844 145.980469 131.839844 145.980469 L 121.851562 167.878906 C 123.617188 167.664062 125.894531 167.390625 128.59375 167.0625 C 129.199219 125.507812 234.042969 141.558594 237.554688 143.898438 C 222.699219 139.050781 205.808594 137.449219 190.226562 137.375 Z M 190.226562 137.375 " fill-opacity="1" fill-rule="nonzero"/><g clip-path="url(#8373e09e85)"><path fill="#ff9900" d="M 166.933594 143.160156 C 166.933594 143.160156 194.136719 138.492188 237.179688 146.207031 C 236.773438 145.800781 245.503906 153.109375 250.171875 168.132812 C 249.972656 167.929688 134.246094 157.984375 100.746094 184.171875 C 101.355469 183.359375 115.160156 168.945312 156.578125 165.292969 C 197.996094 161.636719 247.332031 171.179688 241.445312 157.171875 C 235.554688 143.160156 203.476562 143.160156 166.933594 143.160156 Z M 166.933594 143.160156 " fill-opacity="1" fill-rule="nonzero"/></g><path fill="#ff9900" d="M 122.46875 167.675781 L 118.964844 170.925781 C 118.964844 170.925781 116.632812 167.929688 108.664062 168.234375 C 100.691406 168.539062 105.058594 159.707031 109.777344 159.605469 C 114.5 159.503906 119.066406 158.691406 118.710938 161.128906 C 118.355469 163.566406 118.304688 166.761719 117.59375 167.066406 C 116.886719 167.371094 117.644531 160.113281 111.757812 161.230469 C 105.871094 162.347656 107.039062 164.734375 108.511719 165.292969 C 109.980469 165.851562 112.113281 164.429688 113.890625 166.511719 C 115.667969 168.589844 120.894531 169.707031 122.46875 167.675781 Z M 122.46875 167.675781 " fill-opacity="1" fill-rule="nonzero"/><path fill="#ff9900" d="M 249.8125 168.035156 L 253.3125 171.28125 C 253.3125 171.28125 255.648438 168.289062 263.617188 168.59375 C 271.585938 168.898438 267.222656 160.066406 262.5 159.964844 C 257.777344 159.863281 253.210938 159.050781 253.566406 161.488281 C 253.921875 163.921875 253.972656 167.121094 254.683594 167.425781 C 255.394531 167.730469 254.632812 160.472656 260.519531 161.589844 C 266.410156 162.707031 265.242188 165.089844 263.769531 165.648438 C 262.296875 166.207031 260.164062 164.785156 258.386719 166.867188 C 256.613281 168.949219 251.382812 170.066406 249.8125 168.035156 Z M 249.8125 168.035156 " fill-opacity="1" fill-rule="nonzero"/><g clip-path="url(#81bab410b8)"><path fill="#ff9900" d="M 192.671875 168.539062 C 172.949219 168.605469 151.375 170.769531 127.570312 177.980469 L 127.609375 177.972656 C 164.21875 169.207031 206.53125 169.386719 236.90625 171.585938 C 236.804688 171.589844 236.757812 171.589844 236.65625 171.59375 C 232.585938 171.800781 230.117188 172.402344 224.699219 172.886719 C 219.285156 173.371094 213.839844 173.988281 209.648438 174.742188 C 207.554688 175.121094 205.773438 175.53125 204.457031 175.980469 C 203.796875 176.207031 203.253906 176.441406 202.835938 176.699219 C 202.417969 176.953125 202.113281 177.226562 201.988281 177.582031 C 201.859375 177.953125 202.023438 178.347656 202.332031 178.632812 C 240.839844 202.277344 267.097656 157.433594 273.429688 187.851562 C 273.726562 187.828125 274.023438 187.808594 274.304688 187.804688 C 273.011719 178.675781 268.308594 176.429688 266.46875 173.355469 C 265.894531 172.402344 265.132812 171.953125 264.351562 171.882812 C 263.570312 171.8125 262.800781 172.09375 262.117188 172.464844 C 257.078125 176.242188 250.941406 178.605469 245.070312 179.714844 C 238.960938 180.816406 232.046875 181.265625 225.59375 181.257812 C 194.539062 175.664062 231.089844 173.179688 246.671875 171.667969 C 230.265625 170.5 212.390625 168.472656 192.671875 168.539062 Z M 192.671875 168.539062 " fill-opacity="1" fill-rule="nonzero"/></g><g fill="#000000" fill-opacity="1"><g transform="translate(64.961272, 226.951976)"><g><path d="M 39.75 -28.375 L 33.234375 0 L 24.203125 0 L 26.5625 -10.21875 C 26.75 -11.019531 26.96875 -11.875 27.21875 -12.78125 C 27.46875 -13.6875 27.707031 -14.507812 27.9375 -15.25 C 28.175781 -16 28.394531 -16.675781 28.59375 -17.28125 C 28.800781 -17.882812 28.976562 -18.363281 29.125 -18.71875 L 29.28125 -19.21875 L 29.125 -19.21875 L 19.46875 0 L 12.328125 0 L 11.46875 -19.171875 L 11.296875 -19.171875 C 11.078125 -16.066406 10.640625 -13.082031 9.984375 -10.21875 L 7.640625 0 L -0.734375 0 L 5.78125 -28.375 L 18.640625 -28.375 L 19.171875 -12 L 19.34375 -12 L 27.34375 -28.375 Z M 39.75 -28.375 "/></g></g></g><g fill="#000000" fill-opacity="1"><g transform="translate(103.879586, 226.951976)"><g><path d="M 8.953125 0 L -0.15625 0 L 6.359375 -28.375 L 15.46875 -28.375 Z M 13.734375 0 L 15.296875 -6.796875 L 26.234375 -6.796875 L 24.65625 0 Z M 20.25 -28.375 L 30.890625 -28.375 L 29.328125 -21.5625 L 18.6875 -21.5625 Z M 16.296875 -11.140625 L 17.78125 -17.640625 L 26.1875 -17.640625 L 24.703125 -11.140625 Z M 16.296875 -11.140625 "/></g></g></g><g fill="#000000" fill-opacity="1"><g transform="translate(133.645499, 226.951976)"><g><path d="M 11.515625 -15.5 L 11.1875 -14.015625 L 10.9375 -12.859375 C 10.632812 -11.484375 10.597656 -10.304688 10.828125 -9.328125 C 11.066406 -8.359375 11.617188 -7.613281 12.484375 -7.09375 C 13.347656 -6.570312 14.492188 -6.3125 15.921875 -6.3125 C 16.609375 -6.3125 17.28125 -6.394531 17.9375 -6.5625 L 18.96875 -0.453125 C 17.019531 0.179688 14.921875 0.5 12.671875 0.5 C 3.234375 0.5 -0.351562 -4.394531 1.90625 -14.1875 C 2.757812 -17.863281 4.25 -20.867188 6.375 -23.203125 C 8.507812 -25.546875 11.195312 -27.171875 14.4375 -28.078125 Z M 20.75 -28.859375 C 23.46875 -28.859375 25.800781 -28.46875 27.75 -27.6875 C 29.707031 -26.90625 31.148438 -25.6875 32.078125 -24.03125 C 33.015625 -22.382812 33.222656 -20.410156 32.703125 -18.109375 L 24 -18.109375 C 24.28125 -19.285156 23.976562 -20.238281 23.09375 -20.96875 C 22.21875 -21.695312 21.035156 -22.0625 19.546875 -22.0625 C 18.859375 -22.0625 18.269531 -22.003906 17.78125 -21.890625 L 19.390625 -28.828125 C 19.691406 -28.847656 20.144531 -28.859375 20.75 -28.859375 Z M 23.84375 0 L 22.15625 -10.0625 L 15.71875 -10.0625 L 17.03125 -15.828125 L 32.171875 -15.828125 L 28.546875 0 Z M 23.84375 0 "/></g></g></g><g fill="#000000" fill-opacity="1"><g transform="translate(167.987613, 226.951976)"><g><path d="M 21.453125 -28.375 L 6.515625 0 L -2.796875 0 L 14.0625 -28.375 Z M 25 -25.984375 L 28.5 0 L 18.84375 0 L 18.5625 -4 L 13.40625 -4 L 16.78125 -10.34375 L 18.15625 -10.34375 L 17.984375 -12.65625 Z M 25 -25.984375 "/></g></g></g><g fill="#000000" fill-opacity="1"><g transform="translate(200.062245, 226.951976)"><g><path d="M 20 -28.859375 C 24.207031 -28.859375 27.289062 -27.804688 29.25 -25.703125 C 31.21875 -23.609375 31.75 -20.609375 30.84375 -16.703125 L 22.15625 -16.703125 C 22.53125 -18.347656 22.394531 -19.648438 21.75 -20.609375 C 21.101562 -21.578125 19.984375 -22.0625 18.390625 -22.0625 C 18.148438 -22.0625 17.957031 -22.046875 17.8125 -22.015625 L 19.390625 -28.859375 Z M 11.515625 -15.5 L 10.9375 -12.859375 L 7.96875 -0.125 C 2.132812 -1.800781 0.109375 -6.488281 1.890625 -14.1875 C 3.679688 -21.882812 7.878906 -26.570312 14.484375 -28.25 Z M 14.1875 -6.3125 L 14.6875 -6.3125 C 16.445312 -6.3125 17.882812 -6.765625 19 -7.671875 C 20.113281 -8.578125 20.859375 -9.851562 21.234375 -11.5 L 29.65625 -11.5 C 28.75 -7.625 26.867188 -4.65625 24.015625 -2.59375 C 21.171875 -0.53125 17.578125 0.5 13.234375 0.5 L 12.625 0.5 Z M 14.1875 -6.3125 "/></g></g></g><g fill="#000000" fill-opacity="1"><g transform="translate(232.136876, 226.951976)"><g><path d="M 15.828125 -28.375 L 9.3125 0 L 0.203125 0 L 6.71875 -28.375 Z M 15.828125 -28.375 "/></g></g></g><g fill="#000000" fill-opacity="1"><g transform="translate(248.174187, 226.951976)"><g><path d="M 31.921875 -28.375 L 30.265625 -21.109375 L 25.765625 -21.109375 L 27.421875 -28.375 Z M 20.984375 -21.109375 L 16.125 0 L 7.015625 0 L 11.875 -21.109375 L 2.5625 -21.109375 L 4.203125 -28.375 L 22.640625 -28.375 Z M 20.984375 -21.109375 "/></g></g></g><g fill="#000000" fill-opacity="1"><g transform="translate(277.940089, 226.951976)"><g><path d="M 19.953125 -11.046875 L 19.921875 -11.015625 L 17.40625 0 L 8.28125 0 L 10.796875 -11.015625 L 3.546875 -28.375 L 14.015625 -28.375 Z M 23.421875 -15.015625 L 20.703125 -22.921875 L 25.078125 -28.375 L 35.015625 -28.375 Z M 23.421875 -15.015625 "/></g></g></g><g fill="#000000" fill-opacity="1"><g transform="translate(132.780918, 247.87705)"><g><path d="M 5.65625 0.203125 C 4.664062 0.203125 3.789062 -0.015625 3.03125 -0.453125 C 2.269531 -0.890625 1.671875 -1.488281 1.234375 -2.25 C 0.804688 -3.007812 0.59375 -3.890625 0.59375 -4.890625 C 0.59375 -5.878906 0.804688 -6.753906 1.234375 -7.515625 C 1.671875 -8.285156 2.265625 -8.882812 3.015625 -9.3125 C 3.773438 -9.75 4.648438 -9.96875 5.640625 -9.96875 C 6.460938 -9.96875 7.21875 -9.804688 7.90625 -9.484375 C 8.59375 -9.171875 9.171875 -8.722656 9.640625 -8.140625 C 10.117188 -7.566406 10.445312 -6.890625 10.625 -6.109375 L 8.34375 -6.109375 C 8.15625 -6.648438 7.820312 -7.078125 7.34375 -7.390625 C 6.875 -7.703125 6.328125 -7.859375 5.703125 -7.859375 C 5.160156 -7.859375 4.671875 -7.734375 4.234375 -7.484375 C 3.804688 -7.234375 3.46875 -6.882812 3.21875 -6.4375 C 2.976562 -5.988281 2.859375 -5.472656 2.859375 -4.890625 C 2.859375 -4.296875 2.976562 -3.773438 3.21875 -3.328125 C 3.46875 -2.890625 3.804688 -2.539062 4.234375 -2.28125 C 4.660156 -2.03125 5.144531 -1.90625 5.6875 -1.90625 C 6.332031 -1.90625 6.894531 -2.070312 7.375 -2.40625 C 7.863281 -2.738281 8.207031 -3.179688 8.40625 -3.734375 L 10.703125 -3.734375 C 10.546875 -2.941406 10.226562 -2.25 9.75 -1.65625 C 9.28125 -1.070312 8.691406 -0.613281 7.984375 -0.28125 C 7.285156 0.0390625 6.507812 0.203125 5.65625 0.203125 Z M 5.65625 0.203125 "/></g></g></g><g fill="#000000" fill-opacity="1"><g transform="translate(146.082875, 247.87705)"><g><path d="M 0.125 0 L 4 -9.765625 L 6.1875 -9.765625 L 10.0625 0 L 7.6875 0 L 7.03125 -1.6875 L 3.15625 -1.6875 L 2.5 0 Z M 3.71875 -3.4375 L 6.46875 -3.4375 L 5.09375 -7 Z M 3.71875 -3.4375 "/></g></g></g><g fill="#000000" fill-opacity="1"><g transform="translate(158.310139, 247.87705)"><g><path d="M 1.171875 0 L 1.171875 -9.765625 L 5.34375 -9.765625 C 6.082031 -9.765625 6.726562 -9.628906 7.28125 -9.359375 C 7.832031 -9.085938 8.253906 -8.703125 8.546875 -8.203125 C 8.847656 -7.703125 9 -7.101562 9 -6.40625 C 9 -5.6875 8.832031 -5.066406 8.5 -4.546875 C 8.175781 -4.035156 7.722656 -3.648438 7.140625 -3.390625 L 9.171875 0 L 6.59375 0 L 4.859375 -3.046875 L 3.390625 -3.046875 L 3.390625 0 Z M 3.359375 -4.90625 L 5.046875 -4.90625 C 5.597656 -4.90625 6.019531 -5.03125 6.3125 -5.28125 C 6.601562 -5.539062 6.75 -5.910156 6.75 -6.390625 C 6.75 -6.867188 6.601562 -7.234375 6.3125 -7.484375 C 6.019531 -7.742188 5.597656 -7.875 5.046875 -7.875 L 3.359375 -7.875 Z M 3.359375 -4.90625 "/></g></g></g><g fill="#000000" fill-opacity="1"><g transform="translate(170.174523, 247.87705)"><g/></g></g><g fill="#000000" fill-opacity="1"><g transform="translate(175.493093, 247.87705)"><g><path d="M 1.171875 0 L 1.171875 -9.765625 L 5.34375 -9.765625 C 6.082031 -9.765625 6.726562 -9.628906 7.28125 -9.359375 C 7.832031 -9.085938 8.253906 -8.703125 8.546875 -8.203125 C 8.847656 -7.703125 9 -7.101562 9 -6.40625 C 9 -5.6875 8.832031 -5.066406 8.5 -4.546875 C 8.175781 -4.035156 7.722656 -3.648438 7.140625 -3.390625 L 9.171875 0 L 6.59375 0 L 4.859375 -3.046875 L 3.390625 -3.046875 L 3.390625 0 Z M 3.359375 -4.90625 L 5.046875 -4.90625 C 5.597656 -4.90625 6.019531 -5.03125 6.3125 -5.28125 C 6.601562 -5.539062 6.75 -5.910156 6.75 -6.390625 C 6.75 -6.867188 6.601562 -7.234375 6.3125 -7.484375 C 6.019531 -7.742188 5.597656 -7.875 5.046875 -7.875 L 3.359375 -7.875 Z M 3.359375 -4.90625 "/></g></g></g><g fill="#000000" fill-opacity="1"><g transform="translate(187.35748, 247.87705)"><g><path d="M 1.171875 0 L 1.171875 -9.765625 L 7.59375 -9.765625 L 7.59375 -7.890625 L 3.375 -7.890625 L 3.375 -5.875 L 7.21875 -5.875 L 7.21875 -4.015625 L 3.375 -4.015625 L 3.375 -1.890625 L 7.75 -1.890625 L 7.75 0 Z M 1.171875 0 "/></g></g></g><g fill="#000000" fill-opacity="1"><g transform="translate(197.85408, 247.87705)"><g><path d="M 1.171875 0 L 1.171875 -9.765625 L 3.0625 -9.765625 L 7.375 -3.828125 L 7.375 -9.765625 L 9.578125 -9.765625 L 9.578125 0 L 7.6875 0 L 3.375 -5.984375 L 3.375 0 Z M 1.171875 0 "/></g></g></g><g fill="#000000" fill-opacity="1"><g transform="translate(210.639625, 247.87705)"><g><path d="M 3.515625 0 L 3.515625 -7.6875 L 0.421875 -7.6875 L 0.421875 -9.765625 L 8.828125 -9.765625 L 8.828125 -7.6875 L 5.734375 -7.6875 L 5.734375 0 Z M 3.515625 0 "/></g></g></g><g fill="#000000" fill-opacity="1"><g transform="translate(221.931772, 247.87705)"><g><path d="M 0.125 0 L 4 -9.765625 L 6.1875 -9.765625 L 10.0625 0 L 7.6875 0 L 7.03125 -1.6875 L 3.15625 -1.6875 L 2.5 0 Z M 3.71875 -3.4375 L 6.46875 -3.4375 L 5.09375 -7 Z M 3.71875 -3.4375 "/></g></g></g><g fill="#000000" fill-opacity="1"><g transform="translate(234.15904, 247.87705)"><g><path d="M 1.171875 0 L 1.171875 -9.765625 L 3.390625 -9.765625 L 3.390625 -2.078125 L 7.65625 -2.078125 L 7.65625 0 Z M 1.171875 0 "/></g></g></g><path stroke-linecap="butt" transform="matrix(0.75, -0.000000000000000744, 0.000000000000000744, 0.75, 78.295591, 241.72916)" fill="none" stroke-linejoin="miter" d="M 0.00171259 1.501745 L 58.298591 1.501745 " stroke="#ff9900" stroke-width="3" stroke-opacity="1" stroke-miterlimit="4"/><path stroke-linecap="butt" transform="matrix(0.75, -0.000000000000000744, 0.000000000000000744, 0.75, 252.979968, 241.72916)" fill="none" stroke-linejoin="miter" d="M 0.000667817 1.501745 L 58.297547 1.501745 " stroke="#ff9900" stroke-width="3" stroke-opacity="1" stroke-miterlimit="4"/></svg>